<?xml version="1.0" encoding="utf-8"?>
<!-- Generator: Adobe Illustrator 20.0.0, SVG Export Plug-In . SVG Version: 6.00 Build 0)  -->
<svg version="1.1" id="Layer_1" xmlns="http://www.w3.org/2000/svg" xmlns:xlink="http://www.w3.org/1999/xlink" x="0px" y="0px"
	 width="90px" height="19px" viewBox="0 0 90 19" style="enable-background:new 0 0 90 19;" xml:space="preserve">
<style type="text/css">
	.st0{fill:#D40DAF;}
	.st1{fill:#27A85E;}
</style>
<g>
	<g>
		<path class="st0" d="M8.9,14.4c-0.5,0-1-0.2-1.5-0.4c-1.8-0.8-3.1-2.6-3.1-4.6c0-2.1,1.3-3.9,3.1-4.6c0.5-0.2,1-0.3,1.5-0.4
			c1-1.4,2.3-2.5,3.9-3.2c-1.1-0.5-2.2-0.7-3.5-0.7C8.6,0.5,8,0.6,7.4,0.7c-4,0.9-7,4.5-7,8.7s3,7.8,7,8.7c0.6,0.1,1.3,0.2,1.9,0.2
			h0c1.2,0,2.4-0.3,3.5-0.7C11.2,17,9.8,15.8,8.9,14.4z"/>
		<path class="st0" d="M16.7,4.4c-0.1,0-0.3,0-0.4,0c-1.4,0-2.6,0.5-3.5,1.4c0.9,0.9,1.5,2.2,1.5,3.6c0,1.4-0.6,2.7-1.5,3.6
			c0.9,0.9,2.1,1.4,3.5,1.4c0.1,0,0.3,0,0.4,0c1-1.4,1.5-3.1,1.5-4.9V9.4C18.2,7.5,17.6,5.8,16.7,4.4z"/>
	</g>
	<g>
		<path class="st1" d="M18.2,0.7c-0.6-0.1-1.3-0.2-1.9-0.2c-1.2,0-2.4,0.3-3.5,0.7c1.6,0.7,2.9,1.8,3.9,3.2c0.5,0,1,0.2,1.5,0.4
			c1.8,0.8,3.1,2.6,3.1,4.6c0,2.1-1.3,3.9-3.1,4.6c-0.5,0.2-1,0.3-1.5,0.4c-1,1.4-2.3,2.5-3.9,3.2c1.1,0.5,2.2,0.7,3.5,0.7h0
			c0.7,0,1.3-0.1,1.9-0.2c4-0.9,7-4.5,7-8.7C25.1,5.2,22.2,1.6,18.2,0.7z"/>
		<path class="st1" d="M11.3,9.4c0-1.4,0.6-2.7,1.5-3.6c-0.9-0.9-2.1-1.4-3.5-1.4c-0.1,0-0.3,0-0.4,0c-1,1.4-1.5,3.1-1.5,5v0.1
			c0,1.8,0.6,3.6,1.5,5c0.1,0,0.3,0,0.4,0c1.4,0,2.6-0.5,3.5-1.4C11.8,12.1,11.3,10.8,11.3,9.4z"/>
	</g>
	<path class="st1" d="M12.8,13c-0.9,0.9-2.1,1.4-3.5,1.4c-0.1,0-0.3,0-0.4,0c1,1.4,2.3,2.5,3.9,3.2c1.6-0.7,2.9-1.8,3.9-3.2
		c-0.1,0-0.3,0-0.4,0C14.9,14.4,13.7,13.9,12.8,13z"/>
	<path class="st1" d="M12.8,5.8c0.9-0.9,2.1-1.4,3.5-1.4c0.1,0,0.3,0,0.4,0c-1-1.4-2.3-2.5-3.9-3.2C11.2,1.9,9.8,3,8.9,4.4
		c0.1,0,0.3,0,0.4,0C10.6,4.4,11.9,4.9,12.8,5.8z"/>
	<g>
		<path d="M41.2,6.7c1,1.3,1.5,2.9,1.5,4.9c0,2.1-0.5,3.8-1.5,5.1c-1,1.4-2.3,2-4.1,2c-1.1,0-2-0.2-2.6-0.7
			c-0.4-0.3-0.8-0.7-1.3-1.4v1.7l-3.4,0l0-17.9l3.5,0l0,6.4c0.4-0.6,0.9-1.1,1.5-1.4c0.6-0.4,1.4-0.6,2.4-0.6
			C38.9,4.8,40.2,5.4,41.2,6.7z M38.3,14.8c0.5-0.7,0.7-1.7,0.7-2.9c0-0.9-0.1-1.7-0.4-2.3c-0.5-1.2-1.3-1.8-2.6-1.8
			c-1.3,0-2.1,0.6-2.6,1.7c-0.2,0.6-0.4,1.4-0.4,2.4c0,1.1,0.3,2.1,0.8,2.8c0.5,0.7,1.3,1.1,2.3,1.1C37.1,15.8,37.8,15.5,38.3,14.8z
			"/>
		<path d="M51.5,4.8c0,0,0.1,0,0.3,0l0,3.6c-0.2,0-0.4,0-0.6,0c-0.2,0-0.3,0-0.4,0c-1.4,0-2.3,0.5-2.8,1.4c-0.3,0.5-0.4,1.3-0.4,2.4
			l0,6.3l-3.5,0l0-13.3l3.3,0l0,2.3c0.5-0.9,1-1.5,1.4-1.8c0.6-0.5,1.5-0.8,2.5-0.8C51.4,4.8,51.4,4.8,51.5,4.8z"/>
		<path d="M61.9,5.3c0.9,0.4,1.7,1.1,2.3,2c0.5,0.8,0.9,1.7,1.1,2.7c0.1,0.6,0.1,1.5,0.1,2.6l-9.6,0c0.1,1.3,0.5,2.3,1.4,2.8
			c0.5,0.3,1.2,0.5,1.9,0.5c0.8,0,1.4-0.2,1.9-0.6c0.3-0.2,0.5-0.5,0.7-0.9l3.5,0c-0.1,0.8-0.5,1.6-1.3,2.4c-1.2,1.3-2.8,1.9-5,1.9
			c-1.8,0-3.3-0.5-4.7-1.6c-1.3-1.1-2-2.9-2-5.3c0-2.3,0.6-4.1,1.8-5.3c1.2-1.2,2.8-1.8,4.7-1.8C60,4.7,61,4.9,61.9,5.3z M56.7,8.3
			c-0.5,0.5-0.8,1.2-0.9,2.1l6,0c-0.1-0.9-0.4-1.6-0.9-2.1c-0.6-0.5-1.2-0.7-2-0.7C57.9,7.6,57.2,7.8,56.7,8.3z"/>
		<path d="M70.1,18.4l-3.5,0l0-18l3.5,0L70.1,18.4z"/>
		<path d="M75.6,18.4l-3.5,0l0-18l3.5,0L75.6,18.4z"/>
		<path d="M83.2,10.3c0.6-0.1,1.1-0.2,1.4-0.3c0.5-0.2,0.7-0.5,0.7-1c0-0.5-0.2-0.9-0.6-1.1c-0.4-0.2-0.9-0.3-1.7-0.3
			c-0.8,0-1.4,0.2-1.8,0.6c-0.2,0.3-0.4,0.7-0.5,1.2l-3.3,0c0.1-1.2,0.4-2.1,1-2.9c0.9-1.2,2.5-1.8,4.7-1.8c1.5,0,2.7,0.3,3.9,0.9
			c1.1,0.6,1.7,1.7,1.7,3.3l0,6.1c0,0.4,0,0.9,0,1.5c0,0.5,0.1,0.8,0.2,0.9c0.1,0.2,0.3,0.3,0.5,0.4v0.5l-3.8,0
			c-0.1-0.3-0.2-0.5-0.2-0.8c0-0.2-0.1-0.5-0.1-0.8c-0.5,0.5-1,1-1.7,1.3c-0.7,0.4-1.6,0.6-2.5,0.6c-1.2,0-2.2-0.3-3-1
			c-0.8-0.7-1.2-1.7-1.2-2.9c0-1.6,0.6-2.8,1.9-3.5c0.7-0.4,1.7-0.7,3.1-0.9L83.2,10.3z M85.3,11.9c-0.2,0.1-0.4,0.2-0.7,0.3
			c-0.2,0.1-0.5,0.2-0.9,0.2l-0.8,0.1c-0.7,0.1-1.3,0.3-1.6,0.5c-0.5,0.3-0.8,0.8-0.8,1.5c0,0.6,0.2,1,0.5,1.3
			c0.3,0.3,0.7,0.4,1.2,0.4c0.8,0,1.5-0.2,2.1-0.7c0.6-0.4,1-1.2,1-2.4V11.9z"/>
	</g>
</g>
</svg>
